<?xml version="1.0" encoding="utf-8"?>
<!-- Generator: Adobe Illustrator 25.2.1, SVG Export Plug-In . SVG Version: 6.00 Build 0)  -->
<svg version="1.1" id="Camada_1" xmlns="http://www.w3.org/2000/svg" xmlns:xlink="http://www.w3.org/1999/xlink" x="0px" y="0px"
	 viewBox="0 0 2000 2000" style="enable-background:new 0 0 2000 2000;" xml:space="preserve">
<style type="text/css">
	.st0{fill:#24292F;}
	.st1{fill:#FFFFFF;}
</style>
<path class="st0" d="M1600,2000H400c-220.9,0-400-179.1-400-400V400C0,179.1,179.1,0,400,0h1200c220.9,0,400,179.1,400,400v1200
	C2000,1820.9,1820.9,2000,1600,2000z"/>
<path class="st1" d="M1000,22.3c-546.7,0-990,443.3-990,990c0,463.9,319.4,852.1,750.1,959.5c-4.6-13.4-7.6-28.9-7.6-48.1v-169.2
	c-40.2,0-107.5,0-124.4,0c-67.7,0-128-29.1-157.2-83.2c-32.4-60.1-38-152.1-118.4-208.4c-23.8-18.7-5.7-40.1,21.8-37.2
	c50.7,14.4,92.8,49.2,132.4,100.8c39.4,51.7,58,63.4,131.7,63.4c35.7,0,89.2-2.1,139.5-10c27.1-68.7,73.8-132,131-161.9
	c-329.7-33.9-487-197.9-487-420.6c0-95.9,40.8-188.6,110.2-266.7c-22.8-77.6-51.4-235.7,8.7-295.9c148.3,0,238,96.2,259.5,122.2
	c73.9-25.3,155.1-39.7,240.4-39.7c85.5,0,167,14.4,241.1,39.8c21.3-25.8,111-122.3,259.7-122.3c60.4,60.3,31.4,219.1,8.4,296.5
	c69,78,109.6,170.4,109.6,266.1c0,222.5-157.1,386.4-486.3,420.5c90.6,47.3,156.7,180.1,156.7,280.2v225.6c0,8.6-1.9,14.8-2.9,22.1
	c385.8-135.2,662.9-501.5,662.9-933.5C1990,465.6,1546.7,22.3,1000,22.3z"/>
</svg>
