<?xml version="1.0" encoding="utf-8"?>
<!-- Generator: Adobe Illustrator 25.2.1, SVG Export Plug-In . SVG Version: 6.00 Build 0)  -->
<svg version="1.1" id="Camada_1" xmlns="http://www.w3.org/2000/svg" xmlns:xlink="http://www.w3.org/1999/xlink" x="0px" y="0px"
	 viewBox="0 0 2000 2000" style="enable-background:new 0 0 2000 2000;" xml:space="preserve">
<style type="text/css">
	.st0{fill:#6E6E6E;}
</style>
<path class="st0" d="M1957.3,1105.5c-20.9-48.4-51.2-92.3-89.1-129C1791.7,902,1690.5,861,1583.3,861
	c-69.3,0-125.6-56.2-125.6-125.2s56.3-125.2,125.6-125.2h190.5V332.5H10v1335h279.1V610.6h357.2v646.6l279.1,0.2V610.6h275.1
	c-68.8,212.2,47.4,439.9,259.6,508.7c40.5,13.1,82.7,19.8,125.3,19.7c69.3,0,125.6,56.2,125.6,125.2s-56.3,125.2-125.6,125.2h-192.6
	v278.1h190.5c20.1,0,40.1-1.5,59.9-4.4c95.6-14.1,183.1-61.6,246.9-134.2C1992.4,1412.6,2018.6,1247.7,1957.3,1105.5z"/>
</svg>
