<svg id="Camada_1" data-name="Camada 1" xmlns="http://www.w3.org/2000/svg" viewBox="0 0 2000 2000"><defs><style>.cls-1{fill:#6e6e6e;}</style></defs><path class="cls-1" d="M1957.27,1105.48a401.85,401.85,0,0,0-89.07-129C1791.7,902,1690.52,861,1583.29,861c-69.26,0-125.6-56.15-125.6-125.17s56.34-125.17,125.6-125.17h190.53V332.5H10v1335H289.07V610.61H646.32v646.56l279.07.24V610.61h275.12c-68.81,212.16,47.4,439.93,259.56,508.74a403.91,403.91,0,0,0,125.26,19.7c69.26,0,125.6,56.15,125.6,125.17s-56.34,125.17-125.6,125.17H1392.77V1667.5h190.52a414.61,414.61,0,0,0,59.94-4.36,407.52,407.52,0,0,0,246.91-134.23A400.93,400.93,0,0,0,1957.27,1105.48Z"/></svg>