<svg id="Camada_1" data-name="Camada 1" xmlns="http://www.w3.org/2000/svg" viewBox="0 0 1000 50"><defs><style>.cls-1{fill:#828282;}</style></defs><path class="cls-1" d="M20.69,22.66a10.72,10.72,0,0,0,2.62-1.05,9.72,9.72,0,0,0,3.89-4,12.74,12.74,0,0,0,1.38-6.05,12.76,12.76,0,0,0-1.38-6,9.81,9.81,0,0,0-3.88-4A11.42,11.42,0,0,0,17.52,0H0V38.54H7.53V23H12.1l9,15.5h9.14ZM7.53,7h9.38A3.82,3.82,0,0,1,19,7.55a3.61,3.61,0,0,1,1.36,1.59,5.56,5.56,0,0,1,.48,2.38,6,6,0,0,1-.51,2.39A3.64,3.64,0,0,1,19,15.49a3.74,3.74,0,0,1-2,.56H7.53Z"/><path class="cls-1" d="M58.67,26a22.27,22.27,0,0,0-1.39-8.28,11.21,11.21,0,0,0-4.05-5.22,11.24,11.24,0,0,0-6.42-1.81A14.2,14.2,0,0,0,40,12.16a10.08,10.08,0,0,0-4.3,4.39,15.33,15.33,0,0,0-1.47,7v3.1a13.53,13.53,0,0,0,1.54,6.65,10,10,0,0,0,4.48,4.21,16.6,16.6,0,0,0,12.66.38,16.54,16.54,0,0,0,5-3L53,30.62a9.1,9.1,0,0,1-2.69,1.46,8.94,8.94,0,0,1-3,.52,6.41,6.41,0,0,1-4.58-1.54,5.23,5.23,0,0,1-1.57-3.3H58.67Zm-17.56-3.1a5.91,5.91,0,0,1,1.48-4.05,5.58,5.58,0,0,1,4.22-1.56,4.43,4.43,0,0,1,3.35,1.3,6.28,6.28,0,0,1,1.55,3.68l.08.63Z"/><path class="cls-1" d="M87.91,16.16a8.68,8.68,0,0,0-3.29-4.11,9.26,9.26,0,0,0-5.19-1.41A7.09,7.09,0,0,0,75.27,12a8.63,8.63,0,0,0-2.46,2.66V11H65.27V49.71h7.54V35.06a7,7,0,0,0,2.31,2.64,7.5,7.5,0,0,0,4.31,1.23,9.34,9.34,0,0,0,5.19-1.4,8.82,8.82,0,0,0,3.29-4.07A16.43,16.43,0,0,0,89,27v-4.4A16.78,16.78,0,0,0,87.91,16.16ZM81.5,27a5.64,5.64,0,0,1-1.17,3.81A4.08,4.08,0,0,1,77,32.2a4.9,4.9,0,0,1-2.29-.5,3.35,3.35,0,0,1-1.45-1.46,4.92,4.92,0,0,1-.49-2.3V21.77a5.28,5.28,0,0,1,.49-2.39,3.37,3.37,0,0,1,1.45-1.49A4.78,4.78,0,0,1,77,17.37a4.05,4.05,0,0,1,3.29,1.4,5.86,5.86,0,0,1,1.17,3.9Z"/><path class="cls-1" d="M100.74,37.53a9.59,9.59,0,0,1-4.21-4.1A13.53,13.53,0,0,1,95.09,27V22.48a13.23,13.23,0,0,1,1.44-6.39A9.48,9.48,0,0,1,100.74,12a16.7,16.7,0,0,1,13.34,0,9.48,9.48,0,0,1,4.21,4.05,13.23,13.23,0,0,1,1.44,6.39V27a13.3,13.3,0,0,1-1.44,6.42,9.63,9.63,0,0,1-4.21,4.07,16.59,16.59,0,0,1-13.34,0Zm10.19-6.88A4.93,4.93,0,0,0,112.2,27V22.48a4.86,4.86,0,0,0-1.27-3.57,4.78,4.78,0,0,0-3.55-1.27,4.67,4.67,0,0,0-3.5,1.27,4.86,4.86,0,0,0-1.26,3.57V27a5,5,0,0,0,1.24,3.61,4.66,4.66,0,0,0,3.52,1.29A4.75,4.75,0,0,0,110.93,30.65Z"/><path class="cls-1" d="M132.55,38.49A23.66,23.66,0,0,1,128,37.21a17.28,17.28,0,0,1-3.74-2l4.65-5.59a18.24,18.24,0,0,0,4.32,2,14.63,14.63,0,0,0,4.29.69,11.7,11.7,0,0,0,4.1-.57c1-.38,1.45-.9,1.45-1.58a1.66,1.66,0,0,0-.63-1.4,3.87,3.87,0,0,0-1.62-.67,23.86,23.86,0,0,0-2.78-.36l-1-.11-1-.1-.24,0-.23,0a31.35,31.35,0,0,1-5.12-1,6.54,6.54,0,0,1-3.26-2.23,7.53,7.53,0,0,1-1.33-4.81,8,8,0,0,1,1.37-4.71,8.48,8.48,0,0,1,4-3,17.42,17.42,0,0,1,6.33-1A22.85,22.85,0,0,1,146,12.29a20.4,20.4,0,0,1,3.66,1.9l-4.48,5.28a18.07,18.07,0,0,0-3.91-1.57,14.86,14.86,0,0,0-3.91-.55,9.78,9.78,0,0,0-3.54.5c-.85.34-1.27.8-1.27,1.4a1.19,1.19,0,0,0,.67,1.08,5.18,5.18,0,0,0,1.68.55c.67.12,1.65.24,2.93.39l.5.05.49.05a1,1,0,0,0,.25,0l.25,0a35.83,35.83,0,0,1,5.42,1,7,7,0,0,1,3.56,2.33,7.8,7.8,0,0,1,1.47,5.14,8.36,8.36,0,0,1-1.43,4.9,8.94,8.94,0,0,1-4.18,3.11,18.43,18.43,0,0,1-6.63,1.07A28,28,0,0,1,132.55,38.49Z"/><path class="cls-1" d="M155.41,0h7.53V7.28h-7.53Zm0,11h7.53V38.53h-7.53Z"/><path class="cls-1" d="M178.23,17.24V29.58a2.49,2.49,0,0,0,.42,1.55,1.41,1.41,0,0,0,1.21.54h1.87v7h-3.79q-3.75,0-5.49-1.83a7.63,7.63,0,0,1-1.75-5.45V17.24h-2.94V11h2.94V3h7.53v8h3.5v6.2Z"/><path class="cls-1" d="M193.16,37.53a9.59,9.59,0,0,1-4.21-4.1A13.53,13.53,0,0,1,187.51,27V22.48A13.23,13.23,0,0,1,189,16.09,9.48,9.48,0,0,1,193.16,12a16.7,16.7,0,0,1,13.34,0,9.53,9.53,0,0,1,4.21,4.05,13.23,13.23,0,0,1,1.44,6.39V27a13.3,13.3,0,0,1-1.44,6.42,9.68,9.68,0,0,1-4.21,4.07,16.59,16.59,0,0,1-13.34,0Zm10.19-6.88A4.93,4.93,0,0,0,204.61,27V22.48a4.86,4.86,0,0,0-1.26-3.57,4.78,4.78,0,0,0-3.55-1.27,4.71,4.71,0,0,0-3.51,1.27A4.9,4.9,0,0,0,195,22.48V27a5,5,0,0,0,1.24,3.61,4.66,4.66,0,0,0,3.52,1.29A4.75,4.75,0,0,0,203.35,30.65Z"/><path class="cls-1" d="M239.49,12.79l-4.4,5.91a3.35,3.35,0,0,0-1.35-.79,5.7,5.7,0,0,0-1.84-.27,4.44,4.44,0,0,0-3.53,1.42A5.69,5.69,0,0,0,227.12,23V38.54H219V11h8.1v3.73A9.36,9.36,0,0,1,229.6,12a6.92,6.92,0,0,1,4.14-1.37,9.08,9.08,0,0,1,3.23.55A7,7,0,0,1,239.49,12.79Z"/><path class="cls-1" d="M266.42,11,253.71,45a9,9,0,0,1-1.77,3,6.08,6.08,0,0,1-2.62,1.58,13.48,13.48,0,0,1-3.83.47h-1.68V43h1.68a3.63,3.63,0,0,0,2-.52,3.16,3.16,0,0,0,1.22-1.68l1.52-4.27L240,11h7.1l6.46,16.07L259.32,11Z"/><polygon class="cls-1" points="293.49 7.02 293.49 15.92 309.71 15.92 309.71 22.91 293.49 22.91 293.49 31.54 312.74 31.54 312.74 38.54 285.95 38.54 285.95 0.03 312.74 0.03 312.74 7.02 293.49 7.02"/><polygon class="cls-1" points="343.11 38.54 334.83 38.54 329.68 30.22 324.32 38.54 316.32 38.54 325.8 24.27 316.75 11.04 325.06 11.04 330.01 19.06 334.36 11.04 342.67 11.04 333.95 25.14 343.11 38.54"/><path class="cls-1" d="M370.83,16.16a8.62,8.62,0,0,0-3.29-4.11,9.25,9.25,0,0,0-5.18-1.41A7.12,7.12,0,0,0,358.19,12a8.88,8.88,0,0,0-2.46,2.66V11h-7.54V49.71h7.54V35.06A7.05,7.05,0,0,0,358,37.7a7.54,7.54,0,0,0,4.32,1.23,9.33,9.33,0,0,0,5.18-1.4,8.76,8.76,0,0,0,3.29-4.07A16.43,16.43,0,0,0,372,27v-4.4A16.78,16.78,0,0,0,370.83,16.16ZM364.42,27a5.59,5.59,0,0,1-1.17,3.81A4.07,4.07,0,0,1,360,32.2a4.92,4.92,0,0,1-2.3-.5,3.38,3.38,0,0,1-1.44-1.46,4.92,4.92,0,0,1-.5-2.3V21.77a5.28,5.28,0,0,1,.5-2.39,3.4,3.4,0,0,1,1.44-1.49,4.8,4.8,0,0,1,2.3-.52,4,4,0,0,1,3.28,1.4,5.81,5.81,0,0,1,1.17,3.9Z"/><path class="cls-1" d="M386.37,29.45A2,2,0,0,0,387,31a2.44,2.44,0,0,0,1.7.54h1.26v7h-3.85a7.22,7.22,0,0,1-5.34-1.9,7.34,7.34,0,0,1-1.89-5.38V0h7.53Z"/><path class="cls-1" d="M400,37.53a9.57,9.57,0,0,1-4.2-4.1A13.41,13.41,0,0,1,394.32,27V22.48a13.12,13.12,0,0,1,1.45-6.39A9.46,9.46,0,0,1,400,12a16.7,16.7,0,0,1,13.34,0,9.43,9.43,0,0,1,4.21,4.05A13.12,13.12,0,0,1,419,22.48V27a13.18,13.18,0,0,1-1.45,6.42,9.58,9.58,0,0,1-4.21,4.07,16.59,16.59,0,0,1-13.34,0Zm10.2-6.88A4.93,4.93,0,0,0,411.43,27V22.48a4.86,4.86,0,0,0-1.26-3.57,4.79,4.79,0,0,0-3.55-1.27,4.68,4.68,0,0,0-3.51,1.27,4.9,4.9,0,0,0-1.25,3.57V27a5,5,0,0,0,1.24,3.61,4.63,4.63,0,0,0,3.52,1.29A4.76,4.76,0,0,0,410.17,30.65Z"/><path class="cls-1" d="M446.31,12.79l-4.4,5.91a3.5,3.5,0,0,0-1.35-.79,5.7,5.7,0,0,0-1.84-.27,4.45,4.45,0,0,0-3.54,1.42A5.74,5.74,0,0,0,433.93,23V38.54h-8.08V11h8.08v3.73A9.25,9.25,0,0,1,436.42,12a6.92,6.92,0,0,1,4.14-1.37,9.15,9.15,0,0,1,3.23.55A7.22,7.22,0,0,1,446.31,12.79Z"/><path class="cls-1" d="M472.93,26a22.28,22.28,0,0,0-1.38-8.28,10.64,10.64,0,0,0-10.48-7,14.2,14.2,0,0,0-6.8,1.52A10,10,0,0,0,450,16.55a15.2,15.2,0,0,0-1.47,7v3.1a13.43,13.43,0,0,0,1.54,6.65,10,10,0,0,0,4.47,4.21,16.63,16.63,0,0,0,12.67.38,16.49,16.49,0,0,0,5-3l-4.93-4.21a9.1,9.1,0,0,1-2.69,1.46,8.94,8.94,0,0,1-3,.52A6.41,6.41,0,0,1,457,31.06a5.17,5.17,0,0,1-1.56-3.3h17.5Zm-17.56-3.1a5.92,5.92,0,0,1,1.49-4.05,5.58,5.58,0,0,1,4.21-1.56,4.41,4.41,0,0,1,3.35,1.3A6.28,6.28,0,0,1,466,22.22l.08.63Z"/><path class="cls-1" d="M500,12.79l-4.4,5.91a3.5,3.5,0,0,0-1.35-.79,5.7,5.7,0,0,0-1.84-.27,4.46,4.46,0,0,0-3.54,1.42A5.74,5.74,0,0,0,487.62,23V38.54h-8.08V11h8.08v3.73A9.25,9.25,0,0,1,490.11,12a6.92,6.92,0,0,1,4.14-1.37,9.15,9.15,0,0,1,3.23.55A7.22,7.22,0,0,1,500,12.79Z"/></svg>